<svg width="16" height="8" viewBox="0 0 16 8" fill="none" xmlns="http://www.w3.org/2000/svg">
<mask id="path-1-inside-1_106_10848" fill="white">
<path fill-rule="evenodd" clip-rule="evenodd" d="M12.0451 0.498657C11.2066 0.498657 10.2925 0.923223 9.32642 1.75949C8.86847 2.15541 8.47291 2.57959 8.17618 2.9191C7.13261 1.7682 5.72846 0.498657 4.33195 0.498657H4.32935H4.32675C2.61322 0.506377 1.17313 1.65399 0.78772 3.185C0.788515 3.18222 0.789723 3.17839 0.791365 3.17359C0.789987 3.17792 0.78887 3.18151 0.787997 3.18432L0.787434 3.18613C0.72233 3.4486 0.688477 3.71877 0.688477 3.99924C0.688477 5.92909 2.32388 7.49871 4.33167 7.49871C5.1702 7.49871 6.08426 7.07412 7.05039 6.23786C7.50818 5.84207 7.90363 5.41805 8.20033 5.0786C9.24394 6.22726 10.6485 7.49758 12.0454 7.49758H12.048H12.0506C13.7641 7.48986 15.2068 6.34223 15.5896 4.81122C15.5877 4.81737 15.5838 4.82854 15.5776 4.84408C15.5837 4.82596 15.5874 4.81301 15.5894 4.80607C15.6545 4.54618 15.6883 4.27343 15.6883 3.99296C15.6883 2.06826 14.0529 0.498657 12.0451 0.498657ZM11.9237 6.09069C11.9707 6.09734 12.011 6.10035 12.0451 6.10035C13.2483 6.09263 14.23 5.1483 14.23 3.99554C14.23 2.83506 13.2509 1.89072 12.0451 1.89072C11.7248 1.89072 11.165 2.04768 10.3056 2.79131C9.84467 3.19272 9.44362 3.63787 9.16496 3.96466C8.64672 3.4243 8.17802 2.91997 8.17802 2.91997V2.92113C8.18857 2.93276 8.19907 2.94438 8.20955 2.95599C8.32146 3.07693 9.75119 4.60794 10.3709 5.17403C10.5395 5.32789 11.1707 5.80904 11.9237 6.09069ZM8.19878 5.0769C8.18845 5.06552 8.17814 5.05415 8.16788 5.0428C8.0559 4.92186 6.6262 3.39085 6.00642 2.82476C5.83773 2.67242 5.21422 2.19302 4.4694 1.90651C4.41534 1.89816 4.36972 1.89443 4.33167 1.89443C3.12855 1.90215 2.14679 2.84648 2.14679 3.99924C2.14679 5.15972 3.12595 6.10406 4.33167 6.10663C4.65198 6.10663 5.21187 5.94967 6.07124 5.20604C6.53217 4.80463 6.9332 4.35948 7.21184 4.03269C7.73008 4.57305 8.19878 5.07738 8.19878 5.07738V5.0769Z"/>
</mask>
<path fill-rule="evenodd" clip-rule="evenodd" d="M12.0451 0.498657C11.2066 0.498657 10.2925 0.923223 9.32642 1.75949C8.86847 2.15541 8.47291 2.57959 8.17618 2.9191C7.13261 1.7682 5.72846 0.498657 4.33195 0.498657H4.32935H4.32675C2.61322 0.506377 1.17313 1.65399 0.78772 3.185C0.788515 3.18222 0.789723 3.17839 0.791365 3.17359C0.789987 3.17792 0.78887 3.18151 0.787997 3.18432L0.787434 3.18613C0.72233 3.4486 0.688477 3.71877 0.688477 3.99924C0.688477 5.92909 2.32388 7.49871 4.33167 7.49871C5.1702 7.49871 6.08426 7.07412 7.05039 6.23786C7.50818 5.84207 7.90363 5.41805 8.20033 5.0786C9.24394 6.22726 10.6485 7.49758 12.0454 7.49758H12.048H12.0506C13.7641 7.48986 15.2068 6.34223 15.5896 4.81122C15.5877 4.81737 15.5838 4.82854 15.5776 4.84408C15.5837 4.82596 15.5874 4.81301 15.5894 4.80607C15.6545 4.54618 15.6883 4.27343 15.6883 3.99296C15.6883 2.06826 14.0529 0.498657 12.0451 0.498657ZM11.9237 6.09069C11.9707 6.09734 12.011 6.10035 12.0451 6.10035C13.2483 6.09263 14.23 5.1483 14.23 3.99554C14.23 2.83506 13.2509 1.89072 12.0451 1.89072C11.7248 1.89072 11.165 2.04768 10.3056 2.79131C9.84467 3.19272 9.44362 3.63787 9.16496 3.96466C8.64672 3.4243 8.17802 2.91997 8.17802 2.91997V2.92113C8.18857 2.93276 8.19907 2.94438 8.20955 2.95599C8.32146 3.07693 9.75119 4.60794 10.3709 5.17403C10.5395 5.32789 11.1707 5.80904 11.9237 6.09069ZM8.19878 5.0769C8.18845 5.06552 8.17814 5.05415 8.16788 5.0428C8.0559 4.92186 6.6262 3.39085 6.00642 2.82476C5.83773 2.67242 5.21422 2.19302 4.4694 1.90651C4.41534 1.89816 4.36972 1.89443 4.33167 1.89443C3.12855 1.90215 2.14679 2.84648 2.14679 3.99924C2.14679 5.15972 3.12595 6.10406 4.33167 6.10663C4.65198 6.10663 5.21187 5.94967 6.07124 5.20604C6.53217 4.80463 6.9332 4.35948 7.21184 4.03269C7.73008 4.57305 8.19878 5.07738 8.19878 5.07738V5.0769Z" fill="white"/>
<path d="M9.32642 1.75949L9.426 1.87466L9.42607 1.8746L9.32642 1.75949ZM8.17618 2.9191L8.06339 3.02137L8.17827 3.14806L8.29081 3.01929L8.17618 2.9191ZM4.32675 0.498657L4.32675 0.346405L4.32606 0.346408L4.32675 0.498657ZM0.78772 3.185L0.640075 3.14784L0.934124 3.22679L0.78772 3.185ZM0.791365 3.17359L0.936447 3.21976L0.647295 3.12435L0.791365 3.17359ZM0.787997 3.18432L0.933384 3.22952L0.933391 3.2295L0.787997 3.18432ZM0.787434 3.18613L0.641799 3.14086L0.639661 3.14948L0.787434 3.18613ZM7.05039 6.23786L6.95081 6.12269L6.95075 6.12275L7.05039 6.23786ZM8.20033 5.0786L8.31302 4.97622L8.19813 4.84976L8.08569 4.9784L8.20033 5.0786ZM12.0506 7.49758V7.64983L12.0513 7.64983L12.0506 7.49758ZM15.5896 4.81122L15.7373 4.84815L15.4443 4.76594L15.5896 4.81122ZM15.5776 4.84408L15.4332 4.79601L15.7192 4.90021L15.5776 4.84408ZM15.5894 4.80607L15.7361 4.8469L15.7371 4.84307L15.5894 4.80607ZM11.9237 6.09069L11.8704 6.23329L11.8859 6.23911L11.9024 6.24144L11.9237 6.09069ZM12.0451 6.10035L12.0451 6.25261L12.0461 6.2526L12.0451 6.10035ZM10.3056 2.79131L10.2059 2.67618L10.2056 2.6765L10.3056 2.79131ZM9.16496 3.96466L9.05508 4.07004L9.17159 4.19153L9.28081 4.06345L9.16496 3.96466ZM8.17802 2.91997L8.28955 2.81632L8.02577 2.53249V2.91997H8.17802ZM8.17802 2.92113H8.02577V2.97987L8.06522 3.02338L8.17802 2.92113ZM8.20955 2.95599L8.09649 3.05798L8.0978 3.0594L8.20955 2.95599ZM10.3709 5.17403L10.2683 5.28644L10.2683 5.28648L10.3709 5.17403ZM8.16788 5.0428L8.28082 4.94068L8.27959 4.93935L8.16788 5.0428ZM8.19878 5.0769H8.35103V5.01808L8.31148 4.97453L8.19878 5.0769ZM6.00642 2.82476L6.1091 2.71234L6.10846 2.71177L6.00642 2.82476ZM4.4694 1.90651L4.52407 1.76441L4.50879 1.75853L4.49262 1.75604L4.4694 1.90651ZM4.33167 1.89443L4.33167 1.74217L4.33069 1.74218L4.33167 1.89443ZM4.33167 6.10663L4.33134 6.25888H4.33167V6.10663ZM6.07124 5.20604L6.17086 5.32117L6.17122 5.32085L6.07124 5.20604ZM7.21184 4.03269L7.32172 3.92731L7.20521 3.80582L7.09599 3.93391L7.21184 4.03269ZM8.19878 5.07738L8.08726 5.18103L8.35103 5.46486V5.07738H8.19878ZM9.42607 1.8746C10.3785 1.05015 11.2583 0.650908 12.0451 0.650908V0.346406C11.155 0.346406 10.2065 0.796299 9.22678 1.64437L9.42607 1.8746ZM8.29081 3.01929C8.58508 2.68261 8.97545 2.26419 9.426 1.87466L9.22685 1.64431C8.76149 2.04664 8.36074 2.47657 8.06154 2.8189L8.29081 3.01929ZM8.28896 2.81683C7.76405 2.23793 7.14339 1.62339 6.47398 1.15274C5.80631 0.683323 5.07517 0.346406 4.33195 0.346406V0.650908C4.98524 0.650908 5.65442 0.948765 6.29885 1.40184C6.94153 1.85369 7.54473 2.44937 8.06339 3.02137L8.28896 2.81683ZM4.33195 0.346406H4.32935V0.650908H4.33195V0.346406ZM4.32935 0.346406H4.32675V0.650908H4.32935V0.346406ZM4.32606 0.346408C2.54513 0.354431 1.04297 1.54739 0.640075 3.14784L0.935365 3.22217C1.3033 1.76059 2.68131 0.658323 4.32743 0.650907L4.32606 0.346408ZM0.934124 3.22679C0.933971 3.22733 0.934305 3.22613 0.935436 3.22282L0.647295 3.12435C0.645142 3.13065 0.643059 3.13711 0.641316 3.14322L0.934124 3.22679ZM0.933391 3.2295C0.93426 3.2267 0.935241 3.22355 0.936447 3.21976L0.646284 3.12742C0.644732 3.13229 0.643481 3.13632 0.642602 3.13915L0.933391 3.2295ZM0.932821 3.23133L0.933384 3.22952L0.642609 3.13912L0.642047 3.14093L0.932821 3.23133ZM0.840728 3.99924C0.840728 3.73121 0.873057 3.47334 0.935207 3.22279L0.639661 3.14948C0.571604 3.42385 0.536225 3.70633 0.536225 3.99924H0.840728ZM4.33167 7.34646C2.40209 7.34646 0.840728 5.83925 0.840728 3.99924H0.536225C0.536225 6.01893 2.24566 7.65096 4.33167 7.65096V7.34646ZM6.95075 6.12275C5.99825 6.9472 5.11855 7.34646 4.33167 7.34646V7.65096C5.22185 7.65096 6.17026 7.20105 7.15003 6.35298L6.95075 6.12275ZM8.08569 4.9784C7.79146 5.31502 7.4012 5.7333 6.95081 6.12269L7.14997 6.35304C7.61516 5.95085 8.01579 5.52107 8.31496 5.17879L8.08569 4.9784ZM8.08764 5.18098C8.61254 5.75872 9.23329 6.37286 9.90284 6.8434C10.5706 7.31271 11.302 7.64983 12.0454 7.64983V7.34533C11.3919 7.34533 10.7225 7.04728 10.0779 6.59427C9.43506 6.14249 8.83173 5.54715 8.31302 4.97622L8.08764 5.18098ZM12.0454 7.64983H12.048V7.34533H12.0454V7.64983ZM12.048 7.64983H12.0506V7.34533H12.048V7.64983ZM12.0513 7.64983C13.832 7.6418 15.3371 6.44897 15.7373 4.84815L15.4419 4.77429C15.0766 6.23549 13.6962 7.33791 12.0499 7.34533L12.0513 7.64983ZM15.4443 4.76594C15.4443 4.76591 15.4442 4.76605 15.4441 4.76636C15.444 4.76667 15.4439 4.76711 15.4437 4.76767C15.4433 4.76881 15.4428 4.77036 15.4421 4.77231C15.4407 4.77623 15.4387 4.78146 15.4361 4.78795L15.7192 4.90021C15.7261 4.88265 15.7315 4.86762 15.735 4.8565L15.4443 4.76594ZM15.4427 4.76525C15.4414 4.76997 15.4383 4.78049 15.4332 4.79601L15.7221 4.89215C15.729 4.87144 15.7335 4.85606 15.736 4.84689L15.4427 4.76525ZM15.5361 3.99296C15.5361 4.26117 15.5037 4.52148 15.4417 4.76907L15.7371 4.84307C15.8052 4.57088 15.8406 4.2857 15.8406 3.99296H15.5361ZM12.0451 0.650908C13.9749 0.650908 15.5361 2.15824 15.5361 3.99296H15.8406C15.8406 1.97828 14.131 0.346406 12.0451 0.346406V0.650908ZM11.9024 6.24144C11.9547 6.24885 12.0023 6.2526 12.0451 6.2526V5.9481C12.0196 5.9481 11.9867 5.94583 11.9451 5.93994L11.9024 6.24144ZM12.0461 6.2526C13.3266 6.24439 14.3823 5.23826 14.3823 3.99554H14.0778C14.0778 5.05834 13.17 5.94088 12.0441 5.9481L12.0461 6.2526ZM14.3823 3.99554C14.3823 2.74571 13.3296 1.73847 12.0451 1.73847V2.04297C13.1722 2.04297 14.0778 2.9244 14.0778 3.99554H14.3823ZM12.0451 1.73847C11.6737 1.73847 11.0796 1.9202 10.2059 2.67618L10.4052 2.90645C11.2503 2.17516 11.7759 2.04297 12.0451 2.04297V1.73847ZM10.2056 2.6765C9.73645 3.08508 9.3298 3.53669 9.04911 3.86587L9.28081 4.06345C9.55743 3.73905 9.95289 3.30037 10.4055 2.90612L10.2056 2.6765ZM9.27484 3.85927C9.01619 3.58958 8.76983 3.32881 8.5881 3.13542C8.49724 3.03873 8.42257 2.95892 8.37063 2.9033C8.34465 2.87549 8.32437 2.85372 8.31058 2.83892C8.30369 2.83152 8.29842 2.82586 8.29488 2.82206C8.29311 2.82015 8.29177 2.81872 8.29088 2.81775C8.29043 2.81727 8.2901 2.81691 8.28987 2.81667C8.28976 2.81655 8.28968 2.81646 8.28962 2.81641C8.2896 2.81638 8.28958 2.81635 8.28956 2.81634C8.28956 2.81633 8.28955 2.81633 8.28955 2.81633C8.28955 2.81632 8.28955 2.81632 8.17802 2.91997C8.06649 3.02361 8.0665 3.02362 8.0665 3.02362C8.0665 3.02362 8.06651 3.02363 8.06652 3.02364C8.06653 3.02366 8.06656 3.02368 8.06659 3.02371C8.06665 3.02378 8.06673 3.02387 8.06685 3.024C8.06708 3.02424 8.06743 3.02462 8.06788 3.02511C8.06879 3.02609 8.07015 3.02755 8.07194 3.02947C8.07552 3.03332 8.08083 3.03902 8.08776 3.04647C8.10163 3.06136 8.12201 3.08321 8.14808 3.11113C8.20021 3.16695 8.2751 3.247 8.3662 3.34394C8.54837 3.5378 8.79549 3.79937 9.05508 4.07004L9.27484 3.85927ZM8.02577 2.91997V2.92113H8.33027V2.91997H8.02577ZM8.3226 2.85401C8.31204 2.84231 8.30145 2.8306 8.29082 2.81887L8.06522 3.02338C8.07568 3.03493 8.08611 3.04646 8.0965 3.05798L8.3226 2.85401ZM10.4736 5.06162C9.85964 4.50079 8.43474 2.97517 8.32129 2.85258L8.0978 3.0594C8.20819 3.17868 9.64275 4.71509 10.2683 5.28644L10.4736 5.06162ZM11.9771 5.94809C11.246 5.67465 10.6311 5.20534 10.4736 5.06158L10.2683 5.28648C10.4479 5.45045 11.0954 5.94343 11.8704 6.23329L11.9771 5.94809ZM8.05494 5.1449C8.06529 5.15634 8.07567 5.1678 8.08608 5.17927L8.31148 4.97453C8.30123 4.96324 8.291 4.95196 8.28082 4.94069L8.05494 5.1449ZM5.90374 2.93718C6.51776 3.498 7.9426 5.0236 8.05617 5.14624L8.27959 4.93935C8.16919 4.82012 6.73464 3.28369 6.10909 2.71235L5.90374 2.93718ZM4.41474 2.04861C5.1379 2.32679 5.74576 2.79451 5.90437 2.93776L6.10846 2.71177C5.9297 2.55033 5.29054 2.05925 4.52407 1.76441L4.41474 2.04861ZM4.49262 1.75604C4.43291 1.74682 4.37931 1.74217 4.33167 1.74217V2.04668C4.36013 2.04668 4.39777 2.04951 4.44618 2.05698L4.49262 1.75604ZM4.33069 1.74218C3.05027 1.75039 1.99454 2.75652 1.99454 3.99924H2.29904C2.29904 2.93644 3.20684 2.0539 4.33264 2.04667L4.33069 1.74218ZM1.99454 3.99924C1.99454 5.24911 3.0472 6.25615 4.33134 6.25888L4.33199 5.95438C3.20469 5.95198 2.29904 5.07033 2.29904 3.99924H1.99454ZM4.33167 6.25888C4.70306 6.25888 5.29722 6.07715 6.17086 5.32117L5.97161 5.09091C5.12652 5.82219 4.60089 5.95438 4.33167 5.95438V6.25888ZM6.17122 5.32085C6.64039 4.91228 7.04701 4.46066 7.32769 4.13148L7.09599 3.93391C6.81939 4.2583 6.42395 4.69698 5.97125 5.09122L6.17122 5.32085ZM7.10196 4.13808C7.36061 4.40777 7.60697 4.66854 7.7887 4.86193C7.87956 4.95862 7.95423 5.03843 8.00618 5.09405C8.03215 5.12187 8.05244 5.14363 8.06622 5.15843C8.07312 5.16583 8.07838 5.17149 8.08192 5.1753C8.08369 5.1772 8.08503 5.17864 8.08593 5.1796C8.08637 5.18008 8.08671 5.18044 8.08693 5.18068C8.08704 5.1808 8.08712 5.18089 8.08718 5.18095C8.08721 5.18097 8.08723 5.181 8.08724 5.18101C8.08725 5.18102 8.08725 5.18102 8.08725 5.18103C8.08726 5.18103 8.08726 5.18103 8.19878 5.07738C8.31031 4.97374 8.31031 4.97374 8.3103 4.97373C8.3103 4.97373 8.31029 4.97372 8.31028 4.97371C8.31027 4.97369 8.31025 4.97367 8.31022 4.97364C8.31016 4.97357 8.31007 4.97348 8.30995 4.97336C8.30972 4.97311 8.30938 4.97274 8.30892 4.97224C8.30801 4.97126 8.30665 4.9698 8.30486 4.96788C8.30128 4.96403 8.29597 4.95833 8.28904 4.95089C8.27517 4.936 8.25479 4.91414 8.22873 4.88622C8.1766 4.8304 8.1017 4.75036 8.0106 4.65341C7.82843 4.45955 7.58132 4.19798 7.32172 3.92731L7.10196 4.13808ZM8.35103 5.07738V5.0769H8.04653V5.07738H8.35103Z" fill="white" mask="url(#path-1-inside-1_106_10848)"/>
</svg>
