<svg width="149" height="24" viewBox="0 0 149 24" fill="none" xmlns="http://www.w3.org/2000/svg">
<path d="M9.59961 4.80127H14.3996V9.60127H9.59961V4.80127Z" fill="#FE4F32"/>
<rect x="19.2002" y="4.80127" width="4.8" height="4.8" fill="#FE4F32"/>
<rect x="14.4004" y="4.80127" width="4.8" height="4.8" fill="#FE4F32"/>
<rect x="14.4004" y="9.6001" width="4.8" height="4.8" fill="#FE4F32"/>
<rect x="14.4004" y="14.4009" width="4.8" height="4.8" fill="#FE4F32"/>
<path d="M19.2002 19.1997H14.4002V23.9997C17.0512 23.9997 19.2002 21.8507 19.2002 19.1997Z" fill="#FE4F32"/>
<path fill-rule="evenodd" clip-rule="evenodd" d="M4.7998 0.000488281H0V4.80049H4.7998H4.8H9.5998V0.000488281H4.8H4.7998ZM0 4.80127H4.8V9.6001V9.60127V14.4001H0V9.60127V9.6001V4.80127ZM0 14.4009H4.8V19.1997H9.5998V23.9997H4.8H4.7998H0V19.2009V19.1997V14.4009ZM9.6001 19.1997H14.4001V23.9997H9.6001V19.1997ZM14.4001 0.000488281H9.6001V4.80049H14.4001V0.000488281Z" fill="url(#paint0_linear_70_3242)"/>
<path d="M148.689 19.5305H145V16.0005H148.689V19.5305Z" fill="#FE4F32"/>
<path fill-rule="evenodd" clip-rule="evenodd" d="M34 19.706H39.5675C41.1626 19.706 42.5327 19.3916 43.6779 18.7628C44.8282 18.1339 45.7101 17.2316 46.3236 16.0557C46.9422 14.8798 47.2515 13.4739 47.2515 11.8379C47.2515 10.207 46.9422 8.80621 46.3236 7.63546C45.7101 6.4647 44.8333 5.56746 43.6933 4.94374C42.5532 4.31491 41.1933 4.00049 39.6135 4.00049H34V19.706ZM39.4294 16.8609H37.3206V6.84558H39.4371C40.4187 6.84558 41.2444 7.01941 41.9141 7.36705C42.5838 7.7147 43.0874 8.25662 43.4248 8.99282C43.7674 9.72902 43.9387 10.6774 43.9387 11.8379C43.9387 13.0087 43.7674 13.9647 43.4248 14.706C43.0874 15.4422 42.5813 15.9867 41.9064 16.3394C41.2367 16.6871 40.411 16.8609 39.4294 16.8609ZM85.6406 4.00049V6.73822H90.4489V19.706H93.7311V6.73822H98.5394V4.00049H85.6406ZM134.618 19.706V15.9662L135.504 14.9553L138.714 19.706H142.54L137.949 13.0292L142.318 7.92687H138.568L134.795 12.3977H134.618V4.00049H131.352V19.706H134.618ZM124.431 19.9365C123.225 19.9365 122.187 19.6809 121.318 19.1696C120.454 18.6533 119.789 17.9375 119.324 17.0224C118.864 16.1073 118.634 15.0541 118.634 13.8629C118.634 12.6563 118.866 11.5981 119.332 10.688C119.802 9.7729 120.469 9.05971 121.333 8.54847C122.197 8.03211 123.225 7.77393 124.416 7.77393C125.444 7.77393 126.343 7.96053 127.115 8.33374C127.887 8.70695 128.498 9.23098 128.948 9.90583C129.398 10.5807 129.646 11.3731 129.692 12.2831H126.609C126.522 11.6952 126.292 11.2223 125.919 10.8644C125.551 10.5014 125.068 10.3199 124.47 10.3199C123.964 10.3199 123.521 10.458 123.143 10.734C122.77 11.005 122.478 11.4012 122.269 11.9227C122.059 12.4442 121.954 13.0756 121.954 13.8169C121.954 14.5684 122.057 15.2075 122.261 15.734C122.471 16.2606 122.765 16.662 123.143 16.938C123.521 17.2141 123.964 17.3521 124.47 17.3521C124.843 17.3521 125.178 17.2755 125.474 17.1221C125.776 16.9687 126.024 16.7463 126.218 16.4549C126.418 16.1584 126.548 15.8031 126.609 15.389H129.692C129.641 16.2888 129.396 17.0812 128.956 17.7663C128.521 18.4462 127.921 18.9779 127.154 19.3613C126.387 19.7448 125.479 19.9365 124.431 19.9365ZM108.364 19.5377C108.952 19.7985 109.621 19.9288 110.373 19.9288C110.956 19.9288 111.47 19.8521 111.914 19.6988C112.359 19.5403 112.74 19.323 113.057 19.0469C113.374 18.7657 113.627 18.4411 113.816 18.073H113.908V19.7064H117.006V11.7617C117.006 11.0612 116.871 10.4605 116.6 9.95951C116.329 9.45337 115.958 9.03926 115.488 8.71718C115.023 8.39509 114.489 8.15736 113.885 8.00399C113.287 7.85061 112.661 7.77393 112.006 7.77393C111.066 7.77393 110.237 7.91708 109.522 8.20337C108.811 8.48456 108.231 8.88844 107.781 9.41503C107.331 9.9365 107.029 10.5551 106.876 11.2709L109.897 11.5163C110.01 11.1277 110.24 10.8056 110.588 10.55C110.935 10.2893 111.403 10.1589 111.991 10.1589C112.548 10.1589 112.978 10.2918 113.279 10.5577C113.586 10.8235 113.74 11.1993 113.74 11.685V11.731C113.74 11.9815 113.645 12.1707 113.456 12.2985C113.267 12.4263 112.962 12.5234 112.543 12.5899C112.124 12.6512 111.572 12.7177 110.887 12.7893C110.304 12.8455 109.747 12.9426 109.215 13.0807C108.688 13.2187 108.218 13.4232 107.804 13.6942C107.39 13.9651 107.063 14.323 106.822 14.7678C106.582 15.2126 106.462 15.7622 106.462 16.4166C106.462 17.1937 106.631 17.8429 106.968 18.3644C107.311 18.8808 107.776 19.2719 108.364 19.5377ZM112.582 17.3905C112.213 17.5797 111.789 17.6742 111.309 17.6742C110.808 17.6742 110.393 17.5592 110.066 17.3291C109.744 17.094 109.583 16.754 109.583 16.3092C109.583 16.0025 109.662 15.7468 109.821 15.5423C109.979 15.3327 110.202 15.1666 110.488 15.0439C110.774 14.9212 111.109 14.8317 111.493 14.7755C111.672 14.7499 111.871 14.7218 112.091 14.6911C112.311 14.6553 112.53 14.617 112.75 14.5761C112.97 14.5301 113.167 14.4815 113.341 14.4304C113.52 14.3741 113.66 14.3128 113.763 14.2463V15.4963C113.763 15.9104 113.658 16.2811 113.448 16.6083C113.239 16.9355 112.95 17.1962 112.582 17.3905ZM98.9473 19.7062V7.92701H102.114V9.98223H102.237C102.452 9.25114 102.812 8.699 103.318 8.32579C103.825 7.94746 104.407 7.7583 105.067 7.7583C105.23 7.7583 105.407 7.76853 105.596 7.78897C105.785 7.80943 105.951 7.83754 106.095 7.87333V10.7721C105.941 10.7261 105.729 10.6852 105.458 10.6494C105.187 10.6136 104.939 10.5957 104.714 10.5957C104.234 10.5957 103.804 10.7005 103.426 10.9101C103.053 11.1146 102.756 11.4009 102.536 11.769C102.322 12.1371 102.214 12.5615 102.214 13.042V19.7062H98.9473ZM81.8261 14.6901V7.92627H85.093V19.7054H81.9565V17.5658H81.8338C81.568 18.256 81.1257 18.8107 80.5071 19.23C79.8936 19.6492 79.1446 19.8588 78.2602 19.8588C77.4729 19.8588 76.7801 19.6798 76.182 19.322C75.5838 18.9641 75.116 18.4554 74.7786 17.7959C74.4463 17.1364 74.2776 16.3465 74.2725 15.4263V7.92627H77.5393V14.8434C77.5444 15.5387 77.731 16.0883 78.0991 16.4922C78.4672 16.8961 78.9606 17.098 79.5792 17.098C79.9729 17.098 80.341 17.0086 80.6835 16.8296C81.026 16.6456 81.3021 16.3746 81.5117 16.0168C81.7265 15.6589 81.8313 15.2167 81.8261 14.6901ZM64.2387 19.1696C65.1079 19.6809 66.1457 19.9365 67.3522 19.9365C68.4003 19.9365 69.3078 19.7448 70.0746 19.3613C70.8415 18.9779 71.4422 18.4462 71.8768 17.7663C72.3164 17.0812 72.5618 16.2888 72.613 15.389H69.5301C69.4688 15.8031 69.3384 16.1584 69.139 16.4549C68.9448 16.7463 68.6968 16.9687 68.3952 17.1221C68.0987 17.2755 67.7638 17.3521 67.3906 17.3521C66.8844 17.3521 66.4422 17.2141 66.0639 16.938C65.6856 16.662 65.3916 16.2606 65.182 15.734C64.9775 15.2075 64.8752 14.5684 64.8752 13.8169C64.8752 13.0756 64.98 12.4442 65.1897 11.9227C65.3993 11.4012 65.6907 11.005 66.0639 10.734C66.4422 10.458 66.8844 10.3199 67.3906 10.3199C67.9887 10.3199 68.4719 10.5014 68.84 10.8644C69.2132 11.2223 69.4432 11.6952 69.5301 12.2831H72.613C72.567 11.3731 72.319 10.5807 71.8691 9.90583C71.4192 9.23098 70.8083 8.70695 70.0363 8.33374C69.2643 7.96053 68.3645 7.77393 67.3369 7.77393C66.1457 7.77393 65.1181 8.03211 64.2541 8.54847C63.3901 9.05971 62.7229 9.7729 62.2525 10.688C61.7873 11.5981 61.5547 12.6563 61.5547 13.8629C61.5547 15.0541 61.7847 16.1073 62.2449 17.0224C62.7101 17.9375 63.3747 18.6533 64.2387 19.1696ZM54.5397 19.9365C53.3485 19.9365 52.3184 19.6834 51.4492 19.1773C50.5852 18.6661 49.9181 17.9554 49.4477 17.0454C48.9774 16.1303 48.7422 15.0694 48.7422 13.8629C48.7422 12.6461 48.9774 11.5827 49.4477 10.6727C49.9181 9.75757 50.5852 9.04693 51.4492 8.5408C52.3184 8.02955 53.3485 7.77393 54.5397 7.77393C55.7309 7.77393 56.7585 8.02955 57.6226 8.5408C58.4917 9.04693 59.1614 9.75757 59.6318 10.6727C60.1021 11.5827 60.3373 12.6461 60.3373 13.8629C60.3373 15.0694 60.1021 16.1303 59.6318 17.0454C59.1614 17.9554 58.4917 18.6661 57.6226 19.1773C56.7585 19.6834 55.7309 19.9365 54.5397 19.9365ZM54.5551 17.4058C55.097 17.4058 55.5494 17.2525 55.9124 16.9457C56.2754 16.6338 56.5489 16.2095 56.733 15.6727C56.9221 15.1359 57.0167 14.5249 57.0167 13.8399C57.0167 13.1548 56.9221 12.5439 56.733 12.0071C56.5489 11.4702 56.2754 11.0459 55.9124 10.734C55.5494 10.4222 55.097 10.2663 54.5551 10.2663C54.008 10.2663 53.5479 10.4222 53.1747 10.734C52.8066 11.0459 52.528 11.4702 52.3388 12.0071C52.1548 12.5439 52.0627 13.1548 52.0627 13.8399C52.0627 14.5249 52.1548 15.1359 52.3388 15.6727C52.528 16.2095 52.8066 16.6338 53.1747 16.9457C53.5479 17.2525 54.008 17.4058 54.5551 17.4058Z" fill="#202331"/>
<defs>
<linearGradient id="paint0_linear_70_3242" x1="14" y1="19.4998" x2="14" y2="0.000487998" gradientUnits="userSpaceOnUse">
<stop stop-color="#FE4F32"/>
<stop offset="1" stop-color="#FFA99C"/>
</linearGradient>
</defs>
</svg>
