<svg width="24" height="24" viewBox="0 0 24 24" fill="none"
  xmlns="http://www.w3.org/2000/svg">
  <path d="M9.6001 4.80115H14.4001V9.60115H9.6001V4.80115Z" fill="#FE4F32"/>
  <rect x="19.2002" y="4.80115" width="4.8" height="4.8" fill="#FE4F32"/>
  <rect x="14.3999" y="4.80115" width="4.8" height="4.8" fill="#FE4F32"/>
  <rect x="14.3999" y="9.59998" width="4.8" height="4.8" fill="#FE4F32"/>
  <rect x="14.3999" y="14.4008" width="4.8" height="4.8" fill="#FE4F32"/>
  <path d="M19.2002 19.1996H14.4002V23.9996C17.0512 23.9996 19.2002 21.8506 19.2002 19.1996Z" fill="#FE4F32"/>
  <path fill-rule="evenodd" clip-rule="evenodd" d="M4.7998 0.000366211H0V4.80037H4.7998H4.8H9.5998V0.000366211H4.8H4.7998ZM0 4.80115H4.8V9.59998V9.60115V14.4H0V9.60115V9.59998V4.80115ZM0 14.4008H4.8V19.1996H9.5998V23.9996H4.8H4.7998H0V19.2008V19.1996V14.4008ZM9.6001 19.1996H14.4001V23.9996H9.6001V19.1996ZM14.4001 0.000366211H9.6001V4.80037H14.4001V0.000366211Z" fill="url(#paint0_linear_200_15291)"/>
  <defs>
    <linearGradient id="paint0_linear_200_15291" x1="14" y1="19.4997" x2="14" y2="0.000365927" gradientUnits="userSpaceOnUse">
      <stop stop-color="#FE4F32"/>
      <stop offset="1" stop-color="#FFA99C"/>
    </linearGradient>
  </defs>
</svg>
